<svg preserveAspectRatio="xMidYMid meet" data-bbox="0 0 995.62 280.81" viewBox="0 0 995.62 280.81"
     xmlns="http://www.w3.org/2000/svg" data-type="color" role="presentation" aria-hidden="true" aria-label="">
    <g>
        <path d="M689.72 115.77h-101.1c-4.4 0-7.99.8-10.79 2.41-2.6 1.61-4.8 3.41-6.39 5.81-1.6 2.21-2.8 4.81-3.2 7.62-.6 2.61-1 5.21-1 7.42 0 2.41.4 4.81 1 7.62.4 2.81 1.6 5.21 3.2 7.62 1.6 2.21 3.8 4.21 6.39 5.81 2.8 1.6 6.39 2.41 10.79 2.41h101.1c2.6 0 4.8.8 6.59 2.61 1.8 1.8 2.6 4.01 2.6 6.62 0 2.41-.8 4.61-2.6 6.42-1.8 1.8-4 2.61-6.59 2.61H576.63c-5.19 0-9.79-1.2-13.99-3.81-4-2.41-7.39-5.81-10.39-9.83-2.8-4.01-4.99-8.42-6.59-13.43-1.4-5.01-2.2-9.82-2.2-14.64s.8-9.62 2.4-14.64c1.6-4.81 3.8-9.42 6.99-13.43 3-4.01 6.79-7.22 10.99-9.82 4.4-2.61 9.19-3.81 14.79-3.81h111.09c2.6 0 4.8.8 6.59 2.61 1.8 1.8 2.6 4.01 2.6 6.62s-.8 4.61-2.6 6.42c-1.8 1.8-4 2.81-6.59 2.81Zm-174.03 55.54h9.19c3.6 0 6.59 2 6.59 4.81 0 2.61-3 4.61-6.59 4.61h-40.56c-3.6 0-6.39-2-6.39-4.61 0-2.81 2.8-4.81 6.39-4.81h9.99v-64.36h-9.99c-3.6 0-6.39-2.2-6.39-4.81s2.8-4.81 6.39-4.81h40.56c3.6 0 6.59 2.21 6.59 4.81s-3 4.81-6.59 4.81h-9.19v64.36Zm-57.14 2.2c-2.4 2.41-4.99 4.21-8.19 5.41-3.2 1.2-6.39 1.8-9.99 1.8H324.68c-2.6 0-4.8-.8-6.39-2.61-1.8-1.8-2.8-4.01-2.8-6.42 0-2.61 1-4.81 2.8-6.62 1.6-1.81 3.8-2.61 6.39-2.61h116.49c1.8 0 3.4-.8 4.8-2 1.4-1.4 2.2-3.01 2.2-5.01s-.8-3.61-2.2-5.01c-1.4-1.4-3-2.21-4.8-2.21h-105.9c-3.6 0-6.99-.6-9.99-2s-5.79-3.21-7.99-5.41c-2.4-2.41-4.2-5.01-5.39-8.02-1.4-3.21-2-6.42-2-10.03s.6-6.82 2-10.03c1.2-3.01 3-5.61 5.39-8.02 2.2-2.21 4.99-4.01 7.99-5.41 3-1.4 6.39-2.01 9.99-2.01h115.69c2.6 0 4.8.8 6.59 2.61 1.8 1.8 2.6 4.01 2.6 6.62s-.8 4.61-2.6 6.42c-1.8 1.8-4 2.81-6.59 2.81H334.87c-2 0-3.6.6-5.19 2-1.4 1.2-2.2 3.01-2.2 5.01s.8 3.61 2.2 5.01c1.6 1.4 3.2 2 5.19 2h105.5c3.6 0 6.79.8 9.99 2 3.2 1.4 5.79 3.21 8.19 5.61 2.2 2.21 4 5.01 5.4 8.02 1.2 3.21 2 6.62 2 10.03 0 3.61-.8 7.02-2 10.03-1.4 3.01-3.2 5.81-5.4 8.02Zm-169.43 7.22h-88.31l12.39-17.84c1.8-2.61 4-6.82 6.59-10.43 6.99-9.82 21.78-4.61 17.58 4.81l-4 8.62h39.16l-35.56-45.51c-1-1-2-2.01-3.4-3.21-1.4-1.2-2.6-1.8-4.2-1.8-1.4 0-2.6.6-4 1.8-1.4 1.2-2.4 2.21-3.2 3.21l-44.76 57.14c-2 2.21-4.4 3.21-7.19 3.21-2.4 0-4.6-.8-6.39-2.41-1.8-1.8-2.6-3.81-2.6-6.22 0-2.21.6-4.01 1.8-5.41l46.35-59.75c2.2-2.81 5-5.21 8.59-7.02 3.6-1.81 7.39-2.61 11.39-2.61s7.59.8 10.99 2.41c3.4 1.6 6.19 3.81 8.39 6.62l46.35 59.55c.8.8 1.4 1.8 2 2.81.4 1 .6 2.21.6 3.41 0 2.41-.8 4.41-2.6 6.22-1.6 1.6-3.6 2.41-5.99 2.41Zm-139.86-25.46c0 3.61-.8 7.02-2.2 10.03-1.2 3.01-3 5.81-5.39 8.02-2.4 2.41-5.19 4.21-8.19 5.41-3.2 1.4-6.59 2-9.99 2H8.99c-2.4 0-4.6-.8-6.39-2.61-1.8-1.8-2.6-4.01-2.6-6.42v-65.15c0-2.61.8-4.81 2.6-6.62 1.8-1.81 4-2.61 6.39-2.61h114.49c3.4 0 6.79.6 9.99 2.01 3 1.4 5.79 3.21 8.19 5.41 2.4 2.41 4.2 5.01 5.39 8.22 1.4 3.01 2.2 6.42 2.2 10.02 0 3.21-.6 6.22-1.8 8.82-1 2.81-2.4 5.21-4.19 7.42 1.8 2.21 3.2 4.61 4.19 7.42 1.2 2.81 1.8 5.61 1.8 8.62Zm-19.98-37.29c-1.6-1.6-3.2-2.21-5.19-2.21H18.18v14.03h106.1c2 0 3.6-.6 5-1.8 1.4-1.4 2.2-3.01 2.2-5.01s-.8-3.61-2.2-5.01Zm0 32.28c-1.6-1.4-3.2-2-5.19-2H18.18v14.23h105.9c2 0 3.6-.8 5.19-2.2 1.4-1.4 2.2-3.01 2.2-5.01s-.8-3.61-2.2-5.01Z"
              fill="#2456af" fill-rule="evenodd" data-color="1"></path>
        <path d="M855.77 10.46H958.9C962.31 4.22 968.73 0 976.16 0c10.84 0 19.46 8.65 19.46 19.51 0 7.24-4.21 13.88-10.23 17.1V244c6.02 3.42 10.23 9.86 10.23 17.3 0 10.66-8.63 19.51-19.46 19.51-7.42 0-14.04-4.43-17.26-10.86H855.77v-14.68h101.92c2.01-6.04 6.82-10.86 13.04-12.67V38.02c-6.22-1.81-11.24-6.64-13.04-12.87H855.77V10.46Zm-103.53 0h103.53v14.68H753.64C751.63 31.17 747.02 36 741 38.01v204.78c5.82 1.81 10.63 6.64 12.44 12.47h102.33v14.68H752.44c-3.21 6.44-9.83 10.86-17.46 10.86-10.63 0-19.46-8.85-19.46-19.51 0-7.64 4.41-14.28 10.84-17.5V36.81c-6.42-3.22-10.84-9.86-10.84-17.3C715.52 8.65 724.35 0 734.98 0c7.42 0 14.05 4.22 17.26 10.46Z"
              fill="#63d3df" fill-rule="evenodd" data-color="2"></path>
        <path d="M740.49 243.1c5.81 2.01 10.63 6.64 12.43 12.67h204.71c2.01-6.04 6.82-10.86 13.03-12.67V37.9c-6.22-1.81-11.03-6.64-13.03-12.88H753.12c-2 6.04-6.62 10.86-12.63 12.67V243.1Z"
              fill-rule="evenodd" fill="#576ff3" data-color="3"></path>
        <path d="M944.87 109.73h-9.32v64.36h9.32c3.37 0 6.35 2 6.35 4.81 0 2.61-2.98 4.61-6.35 4.61h-40.46c-3.37 0-6.35-2-6.35-4.61 0-2.81 2.78-4.81 6.35-4.81h9.92v-64.36h-9.92c-3.37 0-6.35-2.2-6.35-4.81s2.78-4.81 6.35-4.81h40.46c3.37 0 6.35 2.2 6.35 4.81s-2.98 4.81-6.35 4.81Zm-64.07 73.78c-2.78 0-5.16-1-6.74-3.41l-42.25-56.94c-.79-1-1.98-2-3.17-3.21-1.39-1.2-2.58-1.8-3.97-1.8s-2.58.6-3.77 1.8c-1.39 1.2-2.38 2.21-3.17 3.21l-42.45 57.14c-1.78 2.2-4.16 3.21-6.74 3.21-2.38 0-4.36-.8-6.15-2.41-1.78-1.8-2.58-3.81-2.58-6.22 0-2.2.6-4.01 1.79-5.41l44.03-59.95c2.18-2.81 4.76-5.01 8.13-6.82 3.37-1.8 7.14-2.61 10.91-2.61 3.57 0 7.14.8 10.31 2.41 3.37 1.6 5.95 3.81 7.93 6.62l44.03 59.55c.79.8 1.39 1.8 1.79 2.81.59 1 .79 2.21.79 3.41 0 2.41-.79 4.41-2.58 6.22-1.59 1.6-3.77 2.41-6.15 2.41Zm-56.13-31.08c3.17 0 5.75 1.2 7.93 3.41 2.18 2.21 3.37 4.81 3.37 8.02s-1.19 5.81-3.37 8.02-4.76 3.21-7.93 3.21-5.75-1-7.93-3.21c-2.18-2.21-3.17-4.81-3.17-8.02s.99-5.81 3.17-8.02c2.18-2.2 4.76-3.41 7.93-3.41Z"
              fill="#ffffff" fill-rule="evenodd" data-color="4"></path>
    </g>
</svg>