<svg xmlns="http://www.w3.org/2000/svg" xmlns:xlink="http://www.w3.org/1999/xlink" version="1.1" id="图层_1" x="0px" y="0px" style="enable-background:new 0 0 841.89 595.28;" xml:space="preserve" viewBox="292.31 194.83 257.26 205.18">
<style type="text/css">
	.st0{fill:url(#SVGID_1_);}
	.st1{fill:url(#SVGID_2_);}
	.st2{fill:url(#SVGID_3_);}
	.st3{fill:url(#SVGID_4_);}
	.st4{fill:url(#SVGID_5_);}
	.st5{fill:url(#SVGID_6_);}
</style>
<g>
	
		<linearGradient id="SVGID_1_" gradientUnits="userSpaceOnUse" x1="301.0713" y1="283.5164" x2="464.4324" y2="283.5164" gradientTransform="matrix(0.9987 -0.0501 0.0501 0.9987 -22.3942 33.6831)">
		<stop offset="0" style="stop-color:#77B7E5"/>
		<stop offset="0.1102" style="stop-color:#6CAFE1"/>
		<stop offset="0.2934" style="stop-color:#4D9AD5"/>
		<stop offset="0.5257" style="stop-color:#007BC2"/>
		<stop offset="0.5674" style="stop-color:#0076BF"/>
		<stop offset="1" style="stop-color:#004DA1"/>
	</linearGradient>
	<path class="st0" d="M314.12,311.53c-2.1-53.34,35.26-75.87,50.89-81.98c3.94-1.54,13.76-5.8,29.96-7.03   c-12.59-3.74-22.65-1.9-35.05,0.12c10.36-9.14,38.39-11.88,62.96-8.91c-9.46-6.02-30.33-8.28-49.15-6.7   c21.44-9.32,47.49-9.48,77.51-1.74c-30.72-14.5-61.38-12.35-87.36-3.11c-21.38,7.6-73.82,37.76-71.49,97.04   c2.04,51.93,48.61,92.38,108.59,98.5C353.68,387.48,315.78,353.61,314.12,311.53z"/>
</g>
<g>
	
		<linearGradient id="SVGID_2_" gradientUnits="userSpaceOnUse" x1="386.1454" y1="287.4147" x2="558.0729" y2="287.4147" gradientTransform="matrix(0.9987 -0.0501 0.0501 0.9987 -22.3942 33.6831)">
		<stop offset="0" style="stop-color:#77B7E5"/>
		<stop offset="0.1102" style="stop-color:#6CAFE1"/>
		<stop offset="0.2934" style="stop-color:#4D9AD5"/>
		<stop offset="0.5257" style="stop-color:#007BC2"/>
		<stop offset="0.5674" style="stop-color:#0076BF"/>
		<stop offset="1" style="stop-color:#004DA1"/>
	</linearGradient>
	<path class="st1" d="M528.27,284.37c2.1,53.34-38.9,74.61-55.36,80.77c-4.15,1.56-14.5,5.85-31.55,7.13   c13.24,3.7,23.84,1.83,36.9-0.24c-10.93,9.18-40.44,12.01-66.29,9.13c9.94,5.99,31.91,8.18,51.72,6.53   c-22.59,9.4-50.01,9.64-81.59,2.01c32.31,14.4,64.58,12.14,91.95,2.82c22.52-7.67,77.78-38.01,75.45-97.3   c-2.04-51.93-50.97-92.22-114.1-98.15C485.17,207.15,526.62,242.3,528.27,284.37z"/>
</g>
<g>
	<linearGradient id="SVGID_3_" gradientUnits="userSpaceOnUse" x1="348.6695" y1="272.0388" x2="348.6695" y2="325.0208">
		<stop offset="0.0112" style="stop-color:#A3C15E"/>
		<stop offset="0.5" style="stop-color:#7CAE2A"/>
		<stop offset="1" style="stop-color:#3D673C"/>
	</linearGradient>
	<path class="st2" d="M359.29,325.02v-23.4h-21.04v23.4h-14.24v-52.98h14.24v22.5h21.04v-22.5h14.02v52.98H359.29z"/>
	<linearGradient id="SVGID_4_" gradientUnits="userSpaceOnUse" x1="406.5707" y1="272.0388" x2="406.5707" y2="325.0208">
		<stop offset="0.0112" style="stop-color:#A3C15E"/>
		<stop offset="0.5" style="stop-color:#7CAE2A"/>
		<stop offset="1" style="stop-color:#3D673C"/>
	</linearGradient>
	<path class="st3" d="M420.91,325.02l-3.68-12.78h-21.18l-3.75,12.78h-14.94l16.22-52.98h25.85l16.36,52.98H420.91z M407.53,279.05   h-2.12l-7.08,26.04h16.86L407.53,279.05z"/>
	<linearGradient id="SVGID_5_" gradientUnits="userSpaceOnUse" x1="467.1273" y1="272.0388" x2="467.1273" y2="325.0208">
		<stop offset="0.0112" style="stop-color:#A3C15E"/>
		<stop offset="0.5" style="stop-color:#7CAE2A"/>
		<stop offset="1" style="stop-color:#3D673C"/>
	</linearGradient>
	<path class="st4" d="M481.47,325.02l-3.68-12.78h-21.18l-3.75,12.78h-14.94l16.22-52.98h25.85l16.36,52.98H481.47z M468.08,279.05   h-2.12l-7.08,26.04h16.86L468.08,279.05z"/>
	<linearGradient id="SVGID_6_" gradientUnits="userSpaceOnUse" x1="508.7383" y1="272.0388" x2="508.7383" y2="325.0208">
		<stop offset="0.0112" style="stop-color:#A3C15E"/>
		<stop offset="0.5" style="stop-color:#7CAE2A"/>
		<stop offset="1" style="stop-color:#3D673C"/>
	</linearGradient>
	<path class="st5" d="M501.87,325.02v-52.98h13.74v52.98H501.87z"/>
</g>
</svg>