<svg xmlns="http://www.w3.org/2000/svg" viewBox="-12.5 0 100 100"><path d="M71.826 92.336 36.314 49.592l-8.977-10.558-4.977 4.656c-3.407 3.407-3.932 8.063-.437 11.558l44.495 42.379c1.035.942 2.36 1.384 3.733.965 1.485-.453 2.351-1.612 2.721-2.837.372-1.233-.174-2.326-1.047-3.419Z" fill="#b3aca5"/><g fill="#b32025"><path d="m36.314 49.592 9.557 11.503 5.761-5.356c3.513-3.513 3.465-8.318.04-11.743L7.971 2.072S6.3.044 4.534.001C2.768-.041 1.023.996.304 2.719-.384 4.37.11 5.528 1.619 7.689l29.307 35.565 5.388 6.338ZM27.61 60.663 10.494 81.687c-1.255 1.337-2.032 3.683-1.331 5.368.733 1.76 2.403 2.841 4.287 2.841 1.061 0 1.937-.373 3.082-1.523L36.86 69.474l-9.25-8.81Z"/></g><path d="M64.663 12.878c-.491-1.208-2.5-2.651-3.581-2.791-1.217-.157-1.953.302-3.209 1.291L37.207 30.119l8.304 7.966 17.837-21.067c1.629-2.117 1.769-3.024 1.315-4.14Z" fill="#b3aca5"/></svg>